<svg xmlns="http://www.w3.org/2000/svg" width="800" height="800" fill="none" viewBox="-1.5 0 24 24"><path fill="#763af5" fill-rule="evenodd" d="M2 21H1a1 1 0 1 1 0-2h1v-2H1a1 1 0 1 1 0-2h1v-2H1a1 1 0 1 1 0-2h1V9H1a1 1 0 1 1 0-2h1V5H1a1 1 0 0 1 0-2h1a3 3 0 0 1 3-3h13a3 3 0 0 1 3 3v18a3 3 0 0 1-3 3H5a3 3 0 0 1-3-3zm15 1h1a1 1 0 0 0 1-1V3a1 1 0 0 0-1-1H5a1 1 0 0 0-1 1v18a1 1 0 0 0 1 1h1v-3a4 4 0 0 1 4-4h3a4 4 0 0 1 4 4v3zm-2 0v-3a2 2 0 0 0-2-2h-3a2 2 0 0 0-2 2v3h7zM11.5 5a4.5 4.5 0 1 1 0 9 4.5 4.5 0 0 1 0-9zm0 2a2.5 2.5 0 1 0 0 5 2.5 2.5 0 0 0 0-5z" clip-rule="evenodd"/></svg>